<?xml version="1.0" encoding="utf-8"?>
<!-- Generator: Adobe Illustrator 16.0.0, SVG Export Plug-In . SVG Version: 6.00 Build 0)  -->
<!DOCTYPE svg PUBLIC "-//W3C//DTD SVG 1.1//EN" "http://www.w3.org/Graphics/SVG/1.1/DTD/svg11.dtd">
<svg version="1.1" id="Layer_1" xmlns="http://www.w3.org/2000/svg" xmlns:xlink="http://www.w3.org/1999/xlink" x="0px" y="0px"
	 width="400.114px" height="129.068px" viewBox="0 0 400.114 129.068" enable-background="new 0 0 400.114 129.068"
	 xml:space="preserve">
<g>
	<g>
		<polygon fill="#FFFFFF" points="80.823,0 64.922,0 41.272,27.125 18.738,0 3.049,0 32.886,35.184 0,73.52 15.902,73.52 
			40.953,44.332 65.347,73.52 81.037,73.52 49.338,36.158 		"/>
		<polygon fill="#FFFFFF" points="81.037,12.854 107.612,12.854 107.612,73.52 120.57,73.52 120.57,12.854 142.041,12.854 
			142.041,0 92.794,0 		"/>
		<g>
			<linearGradient id="SVGID_1_" gradientUnits="userSpaceOnUse" x1="252.4307" y1="53.1548" x2="222.6816" y2="53.1548">
				<stop  offset="0" style="stop-color:#FFFFFF;stop-opacity:0.5"/>
				<stop  offset="0.6071" style="stop-color:#FFFFFF"/>
				<stop  offset="1" style="stop-color:#FFFFFF"/>
			</linearGradient>
			<path fill="url(#SVGID_1_)" d="M234.224,32.79c-4.061,0-7.002,0.904-8.811,2.721c-1.827,1.817-2.731,4.788-2.731,8.926V73.52
				h12.854V46.946c0-1.232,0.619-1.854,1.844-1.854h15.051l-7.401-12.303H234.224z"/>
			<path fill="#FFFFFF" d="M270.602,44.11c2.836-0.798,5.231-1.96,7.198-3.485c1.95-1.524,3.547-3.279,4.787-5.282
				c1.24-1.995,2.145-4.14,2.729-6.428c0.567-2.286,0.868-4.591,0.868-6.914c0-2.907-0.461-5.698-1.365-8.384
				c-0.904-2.688-2.322-5.027-4.255-7.031c-1.913-1.994-4.377-3.588-7.339-4.786c-2.979-1.205-6.542-1.8-10.689-1.8h-39.854v12.854
				h40.296c3.564,0,6.152,0.967,7.783,2.881c1.648,1.933,2.465,4.202,2.465,6.808c0,1.312-0.213,2.58-0.602,3.82
				c-0.409,1.232-1.012,2.323-1.81,3.262c-0.798,0.95-1.844,1.712-3.155,2.289c-1.055,0.477-2.308,0.748-3.711,0.836
				c-0.316,0.021-0.635,0.041-0.971,0.041h-13.712l7.402,12.303l16.77,28.427h14.273L270.602,44.11z"/>
		</g>
		<rect x="297.198" fill="#FFFFFF" width="12.853" height="73.52"/>
		<path fill="#FFFFFF" d="M375.526,9.31c-1.299-3.418-3.203-5.829-5.678-7.216C367.374,0.698,364.24,0,360.431,0
			c-3.9,0-7.086,0.698-9.561,2.094c-2.474,1.387-4.396,3.798-5.768,7.216l-25.564,64.21h14.027l23.09-58.106
			c0.695-1.642,1.924-2.463,3.651-2.463c1.726,0,2.919,0.821,3.56,2.463l22.111,58.106h14.137L375.526,9.31z"/>
		<rect x="151.528" y="0.134" fill="#FFFFFF" width="61.666" height="12.854"/>
		<rect x="151.528" y="30.468" fill="#FFFFFF" width="25.083" height="12.853"/>
		<rect x="151.528" y="60.666" fill="#FFFFFF" width="61.666" height="12.854"/>
		<polygon fill="#E21E26" points="53.984,36.141 86.161,73.52 102.472,73.52 62.458,26.274 		"/>
	</g>
	<g opacity="0.5">
		<path fill="#FFFFFF" d="M161.859,96.295c1.341,0,2.598,0.32,3.771,0.96c1.172,0.64,1.957,1.737,2.353,3.291l-0.594,0.457
			c-0.427-1.28-1.089-2.208-1.989-2.788c-0.899-0.578-1.958-0.867-3.176-0.867c-1.798,0-3.299,0.93-4.502,2.787
			c-1.205,1.859-1.791,4.725-1.76,8.594c0,2.469,0.236,4.518,0.708,6.146c0.472,1.631,1.173,2.852,2.104,3.658
			c0.928,0.808,2.063,1.211,3.404,1.211c1.28,0,2.438-0.549,3.474-1.646s1.661-2.712,1.875-4.845l0.548,0.639
			c-0.244,2.316-0.983,4.099-2.217,5.348c-1.234,1.251-2.902,1.875-5.004,1.875c-1.891,0-3.542-0.457-4.961-1.371
			c-1.416-0.914-2.498-2.285-3.245-4.113c-0.747-1.829-1.12-4.129-1.12-6.902s0.48-5.08,1.44-6.925
			c0.96-1.845,2.224-3.224,3.794-4.137C158.333,96.752,160.031,96.295,161.859,96.295z M171.458,84.639v30.854
			c0,1.371,0.252,2.384,0.754,3.04c0.503,0.654,1.41,0.982,2.72,0.982v0.96c-0.945-0.093-1.89-0.138-2.834-0.138
			c-0.883,0-1.73,0.045-2.536,0.138c-0.808,0.092-1.548,0.259-2.217,0.503V90.124c0-1.372-0.244-2.384-0.731-3.038
			c-0.488-0.656-1.403-0.984-2.744-0.984v-0.96c0.975,0.092,1.92,0.138,2.834,0.138c0.884,0,1.729-0.054,2.538-0.16
			C170.048,85.014,170.788,84.854,171.458,84.639z"/>
		<path fill="#FFFFFF" d="M211.382,96.295c2.68,0,4.775,0.816,6.284,2.445c1.509,1.631,2.263,4.168,2.263,7.611h-16.137
			l-0.045-0.868h11.794c0.06-1.493-0.062-2.872-0.366-4.138c-0.305-1.264-0.785-2.277-1.439-3.039
			c-0.656-0.762-1.502-1.144-2.537-1.144c-1.402,0-2.645,0.702-3.725,2.104c-1.082,1.403-1.73,3.626-1.943,6.674l0.138,0.183
			c-0.062,0.457-0.106,0.959-0.138,1.509c-0.031,0.548-0.046,1.097-0.046,1.645c0,2.072,0.335,3.854,1.006,5.349
			c0.671,1.492,1.547,2.628,2.629,3.404c1.081,0.777,2.201,1.166,3.359,1.166c1.371,0,2.635-0.334,3.794-1.006
			c1.156-0.67,2.133-1.858,2.926-3.564l0.914,0.365c-0.337,1.006-0.885,1.98-1.646,2.926c-0.763,0.945-1.723,1.714-2.879,2.309
			c-1.158,0.594-2.499,0.891-4.022,0.891c-2.194,0-4.077-0.502-5.646-1.51c-1.569-1.004-2.773-2.398-3.611-4.18
			c-0.838-1.783-1.257-3.832-1.257-6.149c0-2.681,0.427-4.989,1.28-6.925c0.852-1.936,2.057-3.428,3.611-4.479
			C207.496,96.821,209.31,96.295,211.382,96.295z"/>
		<path fill="#FFFFFF" d="M253.18,96.295c1.218,0,2.255,0.199,3.108,0.594c0.852,0.397,1.477,0.763,1.874,1.098
			c1.006,0.824,1.614,0.273,1.828-1.646h1.052c-0.063,0.854-0.107,1.866-0.137,3.04c-0.031,1.173-0.047,2.751-0.047,4.73h-1.051
			c-0.184-1.127-0.496-2.225-0.938-3.291s-1.09-1.942-1.943-2.627c-0.853-0.688-1.965-1.03-3.336-1.03
			c-1.067,0-1.958,0.298-2.675,0.892c-0.716,0.596-1.073,1.471-1.073,2.629c0,0.914,0.274,1.699,0.822,2.354
			c0.549,0.656,1.264,1.266,2.149,1.828c0.883,0.564,1.843,1.181,2.879,1.852c1.737,1.129,3.214,2.271,4.435,3.429
			c1.218,1.158,1.828,2.683,1.828,4.57c0,1.401-0.365,2.576-1.098,3.521c-0.73,0.945-1.684,1.66-2.855,2.146
			c-1.174,0.489-2.462,0.732-3.863,0.732c-0.67,0-1.303-0.053-1.896-0.159c-0.595-0.108-1.166-0.267-1.715-0.48
			c-0.305-0.153-0.617-0.335-0.938-0.55c-0.319-0.212-0.633-0.441-0.936-0.686c-0.307-0.242-0.58-0.234-0.823,0.024
			c-0.245,0.259-0.427,0.769-0.548,1.53h-1.053c0.061-0.975,0.107-2.164,0.138-3.564c0.03-1.402,0.046-3.26,0.046-5.576h1.051
			c0.213,1.705,0.518,3.199,0.914,4.479s1.021,2.278,1.875,2.994c0.853,0.717,2.041,1.075,3.564,1.075
			c0.914,0,1.82-0.321,2.72-0.962c0.898-0.639,1.349-1.766,1.349-3.381c0-1.342-0.488-2.438-1.463-3.292
			c-0.976-0.853-2.21-1.751-3.703-2.696c-1.097-0.701-2.125-1.401-3.084-2.104c-0.96-0.701-1.737-1.492-2.332-2.377
			c-0.594-0.883-0.891-1.948-0.891-3.199c0-1.371,0.313-2.49,0.936-3.359c0.625-0.867,1.456-1.51,2.492-1.92
			C250.878,96.502,251.991,96.295,253.18,96.295z"/>
		<path fill="#FFFFFF" d="M295.663,96.433v19.792c0,1.279,0.266,2.148,0.799,2.605s1.424,0.686,2.675,0.686v0.96
			c-0.519-0.03-1.304-0.069-2.354-0.114s-2.109-0.07-3.176-0.07c-1.037,0-2.088,0.025-3.154,0.07
			c-1.067,0.045-1.859,0.084-2.377,0.114v-0.96c1.249,0,2.141-0.229,2.674-0.686s0.799-1.326,0.799-2.605v-14.307
			c0-1.372-0.242-2.385-0.73-3.04c-0.487-0.655-1.401-0.983-2.742-0.983v-0.959c0.975,0.092,1.92,0.137,2.834,0.137
			c0.883,0,1.729-0.053,2.537-0.16C294.253,96.806,294.992,96.646,295.663,96.433z M293.286,85.509c0.792,0,1.478,0.288,2.057,0.867
			s0.868,1.266,0.868,2.057c0,0.793-0.289,1.479-0.868,2.059s-1.265,0.867-2.057,0.867c-0.793,0-1.479-0.288-2.058-0.867
			c-0.579-0.579-0.868-1.266-0.868-2.059c0-0.791,0.289-1.478,0.868-2.057C291.807,85.797,292.493,85.509,293.286,85.509z"/>
		<path fill="#FFFFFF" d="M334.581,129.068c-1.615,0-3.139-0.168-4.571-0.502c-1.433-0.336-2.582-0.862-3.451-1.576
			c-0.868-0.717-1.303-1.625-1.303-2.721c0-1.066,0.427-1.981,1.28-2.742c0.853-0.764,2.012-1.342,3.474-1.737l0.274,0.731
			c-0.67,0.213-1.204,0.641-1.6,1.279c-0.397,0.641-0.595,1.355-0.595,2.148c0,1.4,0.647,2.476,1.943,3.222
			c1.294,0.747,2.978,1.12,5.05,1.12c1.372,0,2.713-0.176,4.023-0.525c1.31-0.35,2.392-0.938,3.245-1.76
			c0.853-0.822,1.28-1.904,1.28-3.244c0-1.007-0.359-1.837-1.074-2.492c-0.717-0.654-2.125-0.982-4.228-0.982h-3.384
			c-0.975,0-1.92-0.075-2.834-0.229c-0.914-0.152-1.66-0.473-2.239-0.96c-0.579-0.486-0.868-1.234-0.868-2.239
			c0-1.037,0.426-2.035,1.279-2.994c0.854-0.961,2.422-1.943,4.707-2.949l0.55,0.412c-1.036,0.548-1.935,1.104-2.697,1.668
			c-0.762,0.564-1.143,1.227-1.143,1.988c0,0.975,0.731,1.463,2.194,1.463h5.713c1.89,0,3.559,0.419,5.007,1.258
			c1.446,0.838,2.171,2.217,2.171,4.137c0,1.432-0.457,2.771-1.372,4.021s-2.278,2.263-4.091,3.039
			C339.51,128.68,337.262,129.068,334.581,129.068z M334.81,110.74c-2.256,0-4.152-0.579-5.69-1.738
			c-1.54-1.156-2.31-2.986-2.31-5.484c0-2.528,0.77-4.365,2.31-5.508c1.538-1.144,3.435-1.715,5.69-1.715
			c2.254,0,4.152,0.571,5.691,1.715c1.537,1.143,2.308,2.979,2.308,5.508c0,2.498-0.771,4.328-2.308,5.484
			C338.962,110.161,337.063,110.74,334.81,110.74z M334.81,109.916c1.158,0,2.063-0.457,2.719-1.37
			c0.656-0.914,0.983-2.591,0.983-5.028s-0.327-4.113-0.983-5.028c-0.655-0.914-1.561-1.372-2.719-1.372
			c-1.129,0-2.026,0.458-2.697,1.372c-0.67,0.915-1.005,2.591-1.005,5.028s0.335,4.114,1.005,5.028
			C332.783,109.459,333.681,109.916,334.81,109.916z M341.392,100.09l-0.822-0.32c0.426-1.037,1.156-1.951,2.193-2.742
			c1.036-0.793,2.117-1.189,3.245-1.189c0.792,0,1.432,0.222,1.92,0.664c0.487,0.441,0.731,1.104,0.731,1.987
			c0,0.944-0.251,1.607-0.754,1.988c-0.504,0.38-1.014,0.571-1.531,0.571c-0.457,0-0.885-0.16-1.279-0.479
			c-0.398-0.321-0.626-0.83-0.687-1.532c-0.062-0.699,0.152-1.598,0.641-2.696l0.594,0.137c-1.279,0.489-2.194,0.999-2.742,1.532
			C342.352,98.543,341.849,99.237,341.392,100.09z"/>
		<path fill="#FFFFFF" d="M390.136,96.295c1.159,0,2.126,0.153,2.902,0.457c0.778,0.307,1.426,0.732,1.943,1.28
			c0.578,0.61,0.99,1.372,1.234,2.286s0.365,2.146,0.365,3.703v12.203c0,1.279,0.267,2.148,0.801,2.605
			c0.533,0.457,1.424,0.686,2.674,0.686v0.96c-0.519-0.03-1.311-0.069-2.377-0.114c-1.067-0.045-2.104-0.07-3.107-0.07
			c-1.007,0-1.989,0.025-2.949,0.07s-1.686,0.084-2.172,0.114v-0.96c1.098,0,1.874-0.229,2.332-0.686
			c0.457-0.457,0.686-1.326,0.686-2.605v-13.21c0-0.944-0.076-1.813-0.229-2.606c-0.152-0.791-0.496-1.432-1.029-1.919
			c-0.532-0.487-1.348-0.729-2.444-0.729c-1.921,0-3.468,0.798-4.64,2.397c-1.174,1.601-1.76,3.573-1.76,5.919v10.148
			c0,1.279,0.229,2.148,0.686,2.605s1.234,0.686,2.331,0.686v0.96c-0.488-0.03-1.212-0.069-2.171-0.114
			c-0.96-0.045-1.943-0.07-2.949-0.07s-2.041,0.025-3.107,0.07c-1.067,0.045-1.859,0.084-2.377,0.114v-0.96
			c1.249,0,2.14-0.229,2.674-0.686c0.533-0.457,0.8-1.326,0.8-2.605v-14.307c0-1.372-0.244-2.385-0.731-3.04
			s-1.402-0.983-2.742-0.983v-0.959c0.975,0.092,1.92,0.137,2.834,0.137c0.883,0,1.729-0.053,2.537-0.16
			c0.807-0.106,1.546-0.266,2.217-0.479v5.394c0.791-2.072,1.896-3.512,3.313-4.32C387.097,96.699,388.583,96.295,390.136,96.295z"
			/>
	</g>
</g>
</svg>
