<?xml version="1.0" encoding="utf-8"?>
<!-- Generator: Adobe Illustrator 16.0.0, SVG Export Plug-In . SVG Version: 6.00 Build 0)  -->
<!DOCTYPE svg PUBLIC "-//W3C//DTD SVG 1.1//EN" "http://www.w3.org/Graphics/SVG/1.1/DTD/svg11.dtd">
<svg version="1.1" id="Layer_1" xmlns="http://www.w3.org/2000/svg" xmlns:xlink="http://www.w3.org/1999/xlink" x="0px" y="0px"
	 width="400.113px" height="129.067px" viewBox="0 0 400.113 129.067" enable-background="new 0 0 400.113 129.067"
	 xml:space="preserve">
<g>
	<g>
		<polygon fill="#010101" points="80.822,0 64.922,0 41.272,27.125 18.738,0 3.049,0 32.886,35.184 0,73.519 15.902,73.519 
			40.953,44.332 65.347,73.519 81.037,73.519 49.338,36.158 		"/>
		<polygon fill="#010101" points="81.037,12.854 107.612,12.854 107.612,73.519 120.57,73.519 120.57,12.854 142.041,12.854 
			142.041,0 92.795,0 		"/>
		<g>
			<path fill="#010101" d="M234.223,32.79c-4.06,0-7.002,0.904-8.81,2.721c-1.827,1.817-2.731,4.788-2.731,8.926v29.082h12.854
				V46.946c0-1.232,0.621-1.854,1.844-1.854h15.051l-7.4-12.303H234.223z"/>
			<path fill="#010101" d="M270.602,44.11c2.836-0.798,5.23-1.96,7.198-3.485c1.95-1.524,3.546-3.279,4.787-5.282
				c1.241-1.995,2.146-4.14,2.729-6.428c0.567-2.286,0.869-4.591,0.869-6.914c0-2.907-0.462-5.698-1.365-8.384
				c-0.905-2.688-2.323-5.027-4.256-7.031c-1.912-1.994-4.377-3.588-7.339-4.786c-2.979-1.205-6.542-1.8-10.69-1.8h-39.854v12.854
				h40.297c3.563,0,6.152,0.967,7.783,2.881c1.648,1.933,2.464,4.202,2.464,6.808c0,1.312-0.212,2.58-0.603,3.82
				c-0.408,1.232-1.01,2.323-1.809,3.262c-0.798,0.95-1.844,1.712-3.155,2.289c-1.054,0.477-2.308,0.748-3.71,0.836
				c-0.318,0.021-0.636,0.041-0.971,0.041h-13.713l7.402,12.303l16.77,28.426h14.273L270.602,44.11z"/>
		</g>
		<rect x="297.198" fill="#010101" width="12.853" height="73.519"/>
		<path fill="#010101" d="M375.527,9.31c-1.3-3.418-3.204-5.829-5.68-7.216C367.373,0.698,364.24,0,360.432,0
			c-3.901,0-7.087,0.698-9.563,2.094c-2.473,1.387-4.396,3.798-5.768,7.216l-25.563,64.209h14.028l23.089-58.105
			c0.695-1.642,1.925-2.463,3.651-2.463c1.725,0,2.919,0.821,3.56,2.463l22.111,58.105h14.136L375.527,9.31z"/>
		<rect x="151.528" y="0.134" fill="#010101" width="61.666" height="12.854"/>
		<rect x="151.528" y="30.468" fill="#010101" width="25.083" height="12.853"/>
		<rect x="151.528" y="60.665" fill="#010101" width="61.666" height="12.854"/>
		<polygon fill="#E21E26" points="53.984,36.141 86.161,73.519 102.472,73.519 62.458,26.274 		"/>
	</g>
	<g opacity="0.5">
		<path fill="#010101" d="M161.859,96.294c1.341,0,2.598,0.32,3.771,0.961c1.172,0.639,1.957,1.736,2.353,3.291l-0.594,0.457
			c-0.427-1.281-1.089-2.209-1.989-2.789c-0.898-0.578-1.957-0.867-3.176-0.867c-1.799,0-3.299,0.93-4.502,2.787
			c-1.205,1.859-1.791,4.725-1.76,8.594c0,2.469,0.235,4.518,0.708,6.146c0.472,1.631,1.173,2.852,2.104,3.658
			c0.929,0.809,2.063,1.211,3.403,1.211c1.281,0,2.438-0.549,3.475-1.645c1.036-1.098,1.66-2.713,1.875-4.846l0.548,0.639
			c-0.244,2.316-0.983,4.1-2.217,5.348c-1.233,1.252-2.902,1.875-5.005,1.875c-1.891,0-3.542-0.457-4.961-1.371
			c-1.416-0.914-2.498-2.285-3.244-4.113c-0.747-1.828-1.12-4.129-1.12-6.902s0.479-5.08,1.44-6.924
			c0.96-1.846,2.224-3.225,3.793-4.137C158.332,96.751,160.031,96.294,161.859,96.294z M171.457,84.638v30.855
			c0,1.371,0.252,2.383,0.754,3.039c0.504,0.654,1.41,0.982,2.721,0.982v0.961c-0.945-0.094-1.89-0.139-2.834-0.139
			c-0.883,0-1.73,0.045-2.536,0.139c-0.808,0.092-1.548,0.258-2.218,0.502V90.124c0-1.373-0.244-2.385-0.73-3.039
			c-0.488-0.656-1.402-0.984-2.744-0.984v-0.959c0.976,0.092,1.921,0.137,2.834,0.137c0.885,0,1.73-0.053,2.538-0.16
			C170.048,85.013,170.788,84.853,171.457,84.638z"/>
		<path fill="#010101" d="M211.382,96.294c2.68,0,4.775,0.816,6.284,2.445c1.509,1.631,2.263,4.168,2.263,7.611h-16.136
			l-0.046-0.867h11.794c0.061-1.494-0.062-2.873-0.366-4.139c-0.305-1.264-0.785-2.277-1.439-3.039
			c-0.655-0.762-1.501-1.143-2.537-1.143c-1.402,0-2.645,0.701-3.726,2.104c-1.082,1.402-1.729,3.625-1.942,6.674l0.138,0.182
			c-0.062,0.457-0.107,0.959-0.138,1.51c-0.03,0.547-0.046,1.096-0.046,1.645c0,2.072,0.336,3.854,1.006,5.348
			c0.67,1.492,1.547,2.629,2.629,3.404c1.081,0.777,2.201,1.166,3.359,1.166c1.371,0,2.635-0.334,3.795-1.006
			c1.156-0.67,2.132-1.857,2.924-3.564l0.915,0.365c-0.337,1.006-0.885,1.98-1.646,2.926c-0.763,0.945-1.722,1.715-2.879,2.309
			c-1.158,0.594-2.499,0.891-4.022,0.891c-2.194,0-4.076-0.502-5.645-1.51c-1.57-1.004-2.774-2.398-3.612-4.18
			c-0.838-1.783-1.257-3.832-1.257-6.148c0-2.682,0.427-4.99,1.28-6.926c0.853-1.936,2.057-3.428,3.611-4.479
			C207.496,96.821,209.309,96.294,211.382,96.294z"/>
		<path fill="#010101" d="M253.18,96.294c1.219,0,2.254,0.199,3.108,0.594c0.853,0.398,1.478,0.764,1.874,1.098
			c1.006,0.824,1.615,0.273,1.828-1.645h1.051c-0.061,0.854-0.105,1.865-0.136,3.039c-0.032,1.174-0.046,2.752-0.046,4.73h-1.052
			c-0.184-1.127-0.495-2.225-0.937-3.291c-0.443-1.066-1.091-1.941-1.943-2.627c-0.854-0.688-1.966-1.029-3.338-1.029
			c-1.066,0-1.957,0.297-2.674,0.891c-0.716,0.596-1.073,1.471-1.073,2.629c0,0.914,0.274,1.699,0.822,2.354
			c0.55,0.656,1.265,1.266,2.149,1.828c0.883,0.564,1.843,1.182,2.879,1.852c1.736,1.129,3.215,2.271,4.434,3.43
			s1.83,2.682,1.83,4.57c0,1.4-0.366,2.576-1.098,3.52c-0.732,0.945-1.685,1.66-2.857,2.146c-1.174,0.49-2.461,0.732-3.862,0.732
			c-0.671,0-1.304-0.053-1.897-0.158c-0.594-0.109-1.165-0.268-1.713-0.48c-0.307-0.154-0.617-0.336-0.938-0.551
			c-0.32-0.211-0.633-0.441-0.938-0.686c-0.305-0.242-0.578-0.234-0.822,0.025c-0.245,0.258-0.428,0.768-0.549,1.529h-1.053
			c0.062-0.975,0.108-2.164,0.139-3.564c0.029-1.402,0.045-3.26,0.045-5.576h1.052c0.213,1.705,0.518,3.199,0.914,4.479
			c0.396,1.279,1.021,2.279,1.874,2.994c0.854,0.717,2.041,1.076,3.565,1.076c0.915,0,1.821-0.322,2.72-0.963
			c0.898-0.639,1.349-1.766,1.349-3.381c0-1.342-0.487-2.438-1.462-3.291c-0.977-0.854-2.211-1.752-3.703-2.697
			c-1.098-0.701-2.125-1.4-3.086-2.104c-0.959-0.701-1.736-1.492-2.33-2.377c-0.594-0.883-0.893-1.947-0.893-3.199
			c0-1.371,0.313-2.49,0.938-3.359c0.624-0.867,1.455-1.51,2.491-1.92C250.878,96.501,251.991,96.294,253.18,96.294z"/>
		<path fill="#010101" d="M295.663,96.433v19.791c0,1.279,0.267,2.148,0.8,2.605s1.424,0.686,2.674,0.686v0.961
			c-0.519-0.031-1.303-0.07-2.354-0.115s-2.11-0.07-3.177-0.07c-1.036,0-2.088,0.025-3.153,0.07
			c-1.067,0.045-1.859,0.084-2.377,0.115v-0.961c1.249,0,2.141-0.229,2.674-0.686s0.8-1.326,0.8-2.605v-14.307
			c0-1.371-0.244-2.385-0.73-3.039c-0.488-0.656-1.402-0.984-2.743-0.984v-0.959c0.975,0.092,1.919,0.137,2.834,0.137
			c0.884,0,1.729-0.053,2.536-0.16C294.254,96.806,294.992,96.646,295.663,96.433z M293.285,85.509c0.793,0,1.479,0.287,2.058,0.867
			c0.579,0.578,0.868,1.266,0.868,2.057c0,0.793-0.289,1.479-0.868,2.059c-0.579,0.578-1.265,0.867-2.058,0.867
			c-0.792,0-1.479-0.289-2.057-0.867c-0.578-0.58-0.868-1.266-0.868-2.059c0-0.791,0.29-1.479,0.868-2.057
			C291.807,85.796,292.493,85.509,293.285,85.509z"/>
		<path fill="#010101" d="M334.581,129.067c-1.616,0-3.14-0.168-4.571-0.502c-1.432-0.336-2.582-0.861-3.451-1.576
			c-0.867-0.717-1.303-1.625-1.303-2.721c0-1.066,0.427-1.98,1.281-2.742c0.852-0.764,2.011-1.342,3.473-1.736l0.275,0.73
			c-0.672,0.213-1.205,0.641-1.602,1.279c-0.396,0.641-0.594,1.355-0.594,2.148c0,1.4,0.647,2.477,1.943,3.223
			c1.295,0.746,2.979,1.119,5.051,1.119c1.371,0,2.711-0.176,4.022-0.525c1.31-0.35,2.392-0.938,3.245-1.76s1.28-1.904,1.28-3.244
			c0-1.006-0.358-1.836-1.075-2.492c-0.716-0.654-2.125-0.982-4.227-0.982h-3.384c-0.975,0-1.919-0.074-2.833-0.229
			c-0.915-0.152-1.662-0.473-2.24-0.959c-0.58-0.486-0.868-1.234-0.868-2.24c0-1.037,0.426-2.035,1.28-2.994
			c0.852-0.961,2.421-1.943,4.706-2.949l0.55,0.412c-1.036,0.549-1.936,1.104-2.697,1.668s-1.143,1.227-1.143,1.988
			c0,0.975,0.731,1.463,2.193,1.463h5.715c1.889,0,3.558,0.42,5.006,1.258c1.446,0.838,2.17,2.217,2.17,4.137
			c0,1.432-0.457,2.771-1.371,4.021s-2.278,2.264-4.092,3.039C339.51,128.679,337.262,129.067,334.581,129.067z M334.81,110.739
			c-2.255,0-4.152-0.578-5.69-1.738c-1.539-1.156-2.309-2.986-2.309-5.484c0-2.527,0.77-4.365,2.309-5.508
			c1.538-1.143,3.436-1.715,5.69-1.715c2.254,0,4.152,0.572,5.69,1.715c1.539,1.143,2.309,2.98,2.309,5.508
			c0,2.498-0.77,4.328-2.309,5.484C338.962,110.161,337.063,110.739,334.81,110.739z M334.81,109.915
			c1.157,0,2.063-0.457,2.72-1.369c0.655-0.914,0.982-2.592,0.982-5.029s-0.327-4.113-0.982-5.027
			c-0.656-0.914-1.563-1.373-2.72-1.373c-1.128,0-2.026,0.459-2.696,1.373c-0.672,0.914-1.006,2.59-1.006,5.027
			s0.334,4.115,1.006,5.029C332.783,109.458,333.682,109.915,334.81,109.915z M341.391,100.089l-0.822-0.32
			c0.427-1.037,1.158-1.951,2.194-2.742c1.036-0.793,2.118-1.189,3.245-1.189c0.793,0,1.432,0.223,1.92,0.664
			s0.731,1.105,0.731,1.988c0,0.943-0.251,1.607-0.754,1.988c-0.503,0.379-1.014,0.57-1.531,0.57c-0.458,0-0.885-0.16-1.28-0.479
			c-0.396-0.322-0.625-0.83-0.686-1.533c-0.062-0.699,0.152-1.598,0.641-2.695l0.594,0.137c-1.279,0.488-2.194,0.998-2.742,1.531
			C342.352,98.542,341.848,99.237,341.391,100.089z"/>
		<path fill="#010101" d="M390.137,96.294c1.158,0,2.125,0.154,2.902,0.457c0.777,0.307,1.424,0.732,1.942,1.281
			c0.578,0.609,0.989,1.371,1.233,2.285s0.366,2.146,0.366,3.703v12.203c0,1.279,0.267,2.148,0.801,2.605
			c0.532,0.457,1.424,0.686,2.673,0.686v0.961c-0.518-0.031-1.31-0.07-2.377-0.115c-1.066-0.045-2.103-0.07-3.107-0.07
			c-1.006,0-1.988,0.025-2.948,0.07s-1.685,0.084-2.171,0.115v-0.961c1.096,0,1.873-0.229,2.331-0.686
			c0.457-0.457,0.686-1.326,0.686-2.605v-13.209c0-0.945-0.076-1.814-0.229-2.607c-0.153-0.791-0.495-1.432-1.029-1.918
			c-0.532-0.488-1.349-0.73-2.444-0.73c-1.92,0-3.468,0.799-4.64,2.398c-1.173,1.6-1.761,3.572-1.761,5.918v10.148
			c0,1.279,0.229,2.148,0.686,2.605c0.458,0.457,1.234,0.686,2.332,0.686v0.961c-0.488-0.031-1.211-0.07-2.172-0.115
			c-0.959-0.045-1.941-0.07-2.947-0.07s-2.043,0.025-3.109,0.07s-1.858,0.084-2.376,0.115v-0.961c1.249,0,2.14-0.229,2.674-0.686
			c0.532-0.457,0.8-1.326,0.8-2.605v-14.307c0-1.371-0.244-2.385-0.731-3.039c-0.487-0.656-1.402-0.984-2.742-0.984v-0.959
			c0.974,0.092,1.919,0.137,2.834,0.137c0.883,0,1.729-0.053,2.536-0.16c0.807-0.105,1.547-0.266,2.217-0.479v5.393
			c0.793-2.072,1.897-3.512,3.314-4.32C387.098,96.698,388.582,96.294,390.137,96.294z"/>
	</g>
</g>
</svg>
